<svg width="26" height="28" viewBox="0 0 26 28" fill="none" xmlns="http://www.w3.org/2000/svg">
<path d="M15.4269 27.3337H10.5736C9.94704 27.3337 9.40496 26.8977 9.27088 26.2857L8.72822 23.7737C8.00429 23.4565 7.31785 23.0598 6.68155 22.591L4.23222 23.371C3.63488 23.5615 2.98553 23.3101 2.67222 22.767L0.240217 18.5657C-0.0696661 18.0223 0.0370949 17.337 0.49755 16.9137L2.39755 15.1803C2.31115 14.3951 2.31115 13.6028 2.39755 12.8177L0.49755 11.0883C0.0364166 10.6648 -0.0703866 9.97862 0.240217 9.43499L2.66688 5.23099C2.9802 4.68792 3.62955 4.43651 4.22688 4.62699L6.67622 5.40699C7.00163 5.16587 7.34039 4.94329 7.69088 4.74033C8.02734 4.55058 8.3736 4.37879 8.72822 4.22566L9.27222 1.71633C9.40564 1.10428 9.94713 0.667651 10.5736 0.666992H15.4269C16.0533 0.667651 16.5948 1.10428 16.7282 1.71633L17.2775 4.22699C17.6519 4.39168 18.0165 4.57777 18.3696 4.78433C18.6993 4.97469 19.018 5.18347 19.3242 5.40966L21.7749 4.62966C22.3718 4.43988 23.0204 4.6912 23.3336 5.23366L25.7602 9.43766C26.0701 9.98097 25.9633 10.6663 25.5029 11.0897L23.6029 12.823C23.6893 13.6082 23.6893 14.4005 23.6029 15.1857L25.5029 16.919C25.9633 17.3423 26.0701 18.0277 25.7602 18.571L23.3336 22.775C23.0204 23.3174 22.3718 23.5688 21.7749 23.379L19.3242 22.599C19.0141 22.8274 18.6919 23.0388 18.3589 23.2323C18.0093 23.4349 17.6488 23.6178 17.2789 23.7803L16.7282 26.2857C16.5943 26.8972 16.0529 27.3331 15.4269 27.3337ZM12.9949 8.66699C10.0494 8.66699 7.66155 11.0548 7.66155 14.0003C7.66155 16.9458 10.0494 19.3337 12.9949 19.3337C15.9404 19.3337 18.3282 16.9458 18.3282 14.0003C18.3282 11.0548 15.9404 8.66699 12.9949 8.66699Z" fill="white"/>
</svg>
